<?xml version="1.0" encoding="UTF-8" standalone="no"?>
<!-- Created with Inkscape (http://www.inkscape.org/) -->

<svg
   xmlns:dc="http://purl.org/dc/elements/1.1/"
   xmlns:cc="http://creativecommons.org/ns#"
   xmlns:rdf="http://www.w3.org/1999/02/22-rdf-syntax-ns#"
   xmlns:svg="http://www.w3.org/2000/svg"
   xmlns="http://www.w3.org/2000/svg"
   xmlns:xlink="http://www.w3.org/1999/xlink"
   xmlns:sodipodi="http://sodipodi.sourceforge.net/DTD/sodipodi-0.dtd"
   xmlns:inkscape="http://www.inkscape.org/namespaces/inkscape"
   width="1221.8956mm"
   height="984.21881mm"
   id="svg2"
   version="1.1"
   inkscape:version="0.92.2 (5c3e80d, 2017-08-06)"
   sodipodi:docname="berlin_map_new.svg"
   sodipodi:version="0.32"
   inkscape:output_extension="org.inkscape.output.svg.inkscape">
  <defs
     id="defs4">
    <inkscape:perspective
       sodipodi:type="inkscape:persp3d"
       inkscape:vp_x="0 : 526.18109 : 1"
       inkscape:vp_y="0 : 1000 : 0"
       inkscape:vp_z="744.09448 : 526.18109 : 1"
       inkscape:persp3d-origin="372.04724 : 350.78739 : 1"
       id="perspective10" />
    <inkscape:perspective
       sodipodi:type="inkscape:persp3d"
       inkscape:vp_x="0 : 0.5 : 1"
       inkscape:vp_y="0 : 1000 : 0"
       inkscape:vp_z="1 : 0.5 : 1"
       inkscape:persp3d-origin="0.5 : 0.33333333 : 1"
       id="perspective4735" />
    <inkscape:perspective
       sodipodi:type="inkscape:persp3d"
       inkscape:vp_x="0 : 0.5 : 1"
       inkscape:vp_y="0 : 1000 : 0"
       inkscape:vp_z="1 : 0.5 : 1"
       inkscape:persp3d-origin="0.5 : 0.33333333 : 1"
       id="perspective4697" />
    <clipPath
       id="Schnittmaske_2_-5">
      <use
         height="3701.373"
         width="5048.2329"
         y="0"
         x="0"
         id="use18-27"
         xlink:href="#Schnittmaske" />
    </clipPath>
    <inkscape:perspective
       sodipodi:type="inkscape:persp3d"
       inkscape:vp_x="0 : 0.5 : 1"
       inkscape:vp_y="0 : 1000 : 0"
       inkscape:vp_z="1 : 0.5 : 1"
       inkscape:persp3d-origin="0.5 : 0.33333333 : 1"
       id="perspective4617" />
    <clipPath
       id="Schnittmaske_2_-17">
      <use
         height="3701.373"
         width="5048.2329"
         y="0"
         x="0"
         id="use18-1"
         xlink:href="#Schnittmaske" />
    </clipPath>
    <inkscape:perspective
       sodipodi:type="inkscape:persp3d"
       inkscape:vp_x="0 : 0.5 : 1"
       inkscape:vp_y="0 : 1000 : 0"
       inkscape:vp_z="1 : 0.5 : 1"
       inkscape:persp3d-origin="0.5 : 0.33333333 : 1"
       id="perspective4488" />
    <clipPath
       id="Schnittmaske_2_-0-5">
      <use
         height="3701.373"
         width="5048.2329"
         y="0"
         x="0"
         id="use18-9-5"
         xlink:href="#Schnittmaske" />
    </clipPath>
    <inkscape:perspective
       sodipodi:type="inkscape:persp3d"
       inkscape:vp_x="0 : 0.5 : 1"
       inkscape:vp_y="0 : 1000 : 0"
       inkscape:vp_z="1 : 0.5 : 1"
       inkscape:persp3d-origin="0.5 : 0.33333333 : 1"
       id="perspective4223" />
    <clipPath
       id="clipPath4210"
       clipPathUnits="userSpaceOnUse">
      <path
         transform="translate(-7.350512e-8,3.7359334e-5)"
         style="display:inline;overflow:visible;visibility:visible;fill:#fefee9;fill-opacity:1;fill-rule:nonzero;stroke:none;stroke-width:1;marker:none;enable-background:accumulate"
         d="m 1845.565,3094.159 -66,-57.5 v -44.5 l -115.5,78.5 -55,37 -34.5,32.5 -18,-26 -102,-135 7,-5.5 2.5,-7.5 -4.5,-6.5 -45.5,46 -48,50 -28.5,26.5 -29.5,17 -28.5,5.5 h -17 l -18,-3 -21.5,-11.5 -15.5,-4.5 h -22.5 l -39,19.5 -0.5,-7 c 0,0 -0.5,-14.5 -0.5,-16.5 0,-2 -5.5,-15.5 -5.5,-15.5 l -1,-18 c 0,0 -2,-26 -2,-27.5 0,-1.5 -7,-29 -7,-29 l -8,-25.5 -1,-18.5 -10.5,-21.5 -35,6 c 0,0 -33.5,1 -35,1 -1.5,0 -15,5.5 -15,5.5 l -58,-4.5 -27,14.5 -29.5,15 -43,25 -47.5,14 -26,6.5 -16.5,1 -25.5,18.5 -219,131.5 v 21 l -2,23 -6.5,33 7.5,-1 33,-7 21.5,-5 31,-9.5 3,23 -21.5,16.5 -30,3.5 -39.5,5.5 -28.5,-9 -21.5,-2.5 -29.5,-1.5 -23,-9 -3,-7.5 -22,15.5 -23.5,23.5 -22.5,26 -9.5,14.5 c 0,0 10,11 12.5,12 2.5,1 8,11 8,11 l -2.5,11.5 -14,1 -20.5,-12.5 c 0,0 -11,-9 -11,-10.5 0,-1.5 3.5,-24 3.5,-24 l 5.5,-5.5 20.5,-2 11.5,-12.5 c 0,0 18,-18 18.5,-19.5 0.5,-1.5 16.5,-17.5 16.5,-17.5 l -17.5,1 -2,-4 -4.5,-8 21.5,-8 -32.5,-12.5 -4.5,3 -6,9.5 -10,10 -14,6 -13.5,6 c 0,0 -12,-7 -13.5,-7.5 -1.5,-0.5 -14,-9.5 -14,-9.5 l -13,-19 -16,-19 -6.5,-6 -11.5,-5 -20,-6 -13.5,-13 -2,-10.5 -10.5,-12.5 -7,-5.5 1.5,-3 7,-7.5 -7,-5 h -13.5 l 2,-8 5,-8.5 7,-9 6,-13 -0.5,-8 -20,-7.5 -2.892,9.074 3,19.5 -4.5,10.5 -13.5,-1.5 h -20.999 v -15 l -3,-18 -6,-2.998 -22.499,10.498 3,10.5 13.5,12 v 8.998 l -14.999,6 -9,-8.998 -19.499,-4.5 c 0,0 -12,-3 -16.5,-7.5 -4.5,-4.5 1.5,-19.5 1.5,-19.5 l -6,-17.998 -3,-22.5 -12,-25.498 9,-3 26.999,-20.998 22.499,-18 16.5,-26.998 c 0,0 7.5,4.5 11.999,4.5 4.499,0 22.499,4.498 22.499,4.498 l 9,-16.498 25.499,-25.498 19.499,-18 -6,-29.998 3,-9 19.499,-23.998 26.999,-22.5 23.999,-10.5 v -13.498 l 6,-12 -19.5,-16.498 -20.999,-33 -8.999,-4.5 -13.5,-3 -11.999,-14.998 6,-9 -16.499,-16.5 -20.999,-14.998 3,-12 7.392,-22.096 2.5,-33 -2.5,-22.5 -14.5,-12 5,-25.5 -3.5,-21.5 -4,-14.5 22,-43 c 0,0 11,-28.5 12,-30 1,-1.5 9,-25.5 9,-27 0,-1.5 0,-14.5 0,-14.5 l -0.5,-20.5 58,-18.5 44,-62 48,-69 56.5,-82 42.5,-55.5 42,-52 c 0,0 13,-12.5 13,-14 0,-1.5 12.5,-17.5 12.5,-17.5 l 7.5,-2.5 -63,-32.5 -19,-8 -35,-21.5 -35.5,-18 -12.5,-1 -5.5,-15 -11.5,-9 -18.5,3.5 -45,14.5 c 0,0 -40,12 -42,12 -2,0 -30.5,4 -30.5,4 l -35.5,3 4,-34 0.5,-26 v -46.5 l 2,-42 3,-25 14,-38.5 5,-23 3,-39.5 4,-22 5.5,-44.5 13.5,-58.5 8,-39.5 13.5,10 c 0,0 11,14 12.5,14.5 1.5,0.5 20.5,7.5 20.5,7.5 l 23.5,4.5 c 0,0 18,1.5 19.5,1.5 1.5,0 7.5,-3 7.5,-3 l 6.5,-2 3,-8.5 v -7 l 6.5,-9 v -11 l -4.5,-33 -9,-22 10,-14 2,-37 12,-22 7,-30 10,-13 v -22 l 4,-8 -1,-44 c 0,0 -12,-34 -16,-40 -4,-6 -10,-20 -10,-20 l -5,-6 -40,21 -29,13 h -14 c 0,0 -24,12 -28,12 -4,0 -11,-14 -11,-14 l -7,-21 -12,-1 4,-30 -8,-4 1,-10 6,-5 16,8 30,-11 10,-17 39,-8 32,-21 29,-45 c 0,0 14,-26 18,-28 4,-2 32,-12 32,-12 l 26,-4 19,17 9,3 h 13 l 17,13 12,5 18,2 16,3 12,4 h 19 l 12,14 17,5 16,13 20,10 29,2 33,14 29,14 6,-19 39,-1 25,8 9,-34 v -18 l -14,-20 -22,-17 -27,-20 -38.333,-46 -22.667,-30.667 -2.667,-22.667 14.667,-12 18,-13.333 16,-38 15.333,-34 10.667,-25.333 9.333,-22 14,-16 10.667,-33.333 7.333,-26.667 0.667,-26.667 36.667,-4 1.333,6 28.667,0.667 24.666,-4 h 19.334 c 0,0 19.334,-4 22,-4 2.666,0 12.666,-6 15.333,-6 2.667,0 16,8.667 18,8.667 2,0 12.667,2 12.667,2 l 10.666,-4 29.334,0.667 26,-4 c 0,0 22,-4 27.333,-2.667 5.333,1.333 26.667,8 24.667,7.333 -2,-0.667 -1.334,-62 -1.334,-62 l -2.666,-29.333 -7.334,-20.667 -11.333,-22 -1.333,-19.333 c 0,0 35.999,8.667 38.666,8.667 2.667,0 20.667,-2 20.667,-2 l 16,-6 22.667,1.333 c 0,0 27.999,-8 30.666,-8 2.667,0 16,-4.667 16,-4.667 l 2.667,-127.333 h -24 l 4.667,-94 40,10 28.666,2.667 38.667,-1.333 26,-4 32,-3.333 19.333,22 -62,48.667 58.667,104 6,1.333 c 0,0 -5.333,34.667 -5.333,36.667 0,2 -7.334,12 -7.334,12 l 1.334,16.667 -2,20.667 18.666,38.667 5.334,20.667 2,10 -45.334,27.333 42,-6 24.667,-4.667 c 0,0 32.667,13.333 36.667,13.333 4,0 32.666,1.333 32.666,1.333 l 58,17.333 40,18.667 20,-8 29.334,-6.667 48,-4.667 4,11.333 24.666,-10.667 16,2.667 16,-10 16,-9.333 31.334,-11.333 9.333,-2.667 12,-16.667 8,-2 19.333,-11.333 14,-17.333 -8.666,-16 19.333,-35.333 2.667,5.333 9.333,-9.333 10.667,-6 -2.667,-5.333 -6.667,-2.667 13.334,-8.667 14.666,0.667 16,-8 6.667,-9.333 4,-21.333 -1.333,-23.333 14.666,-19.333 8,-34.667 2.667,-9.333 h 15.333 l 2,-6 4.667,-7.333 39.333,36 24.667,14 12,12 c 0,0 27.333,-14.667 29.333,-12 2,2.667 8,10 8,10 h 10 v 17.333 c 0,0 22.667,24 24.667,25.333 2,1.333 45.333,27.333 45.333,27.333 l 26.667,-22.667 24.667,2.667 12,-12 -6.667,-30 0.667,-40 41.333,-13.333 2,-41.333 19.333,-6.667 c 0,0 22,-4.667 24,-4.667 2,0 31.334,-1.333 31.334,-1.333 l 1.333,10 c 0,0 50.001,5.333 51.335,3.333 1.334,-2 17.334,-4.667 17.334,-7.333 0,-2.667 4,-16.667 4,-16.667 l 14.666,-8 10.667,-7.333 20,-3.333 8.667,-16 16.666,-8.667 -2.666,-22 -8.667,-5.333 -68.667,-4.667 c 0,0 -55.332,-46 -60.666,-46 -5.334,0 -29.334,-10.667 -29.334,-10.667 l 61.334,-72.667 43.333,14 24.667,-40 7.333,2 27.333,-43.333 10,6.667 19.334,-16.667 6,8 c 0,0 -29.334,58 -28.667,60 0.667,2 7.333,20.667 7.333,20.667 l 78.667,-44 -14.667,135.33 43.333,44 84,45.333 18.667,6 51.333,42.667 42.667,-20 11.333,21.333 13.334,0.667 -4.667,80.667 -18.667,88.667 -77.333,50.667 0.667,66 -9.334,6 -32,94 -8,69.333 16,-4.667 73.334,141.333 98.666,-14 24,4 35.334,8 47.333,14.667 59.333,16 -0.666,6.667 38.666,20 35.334,28 32.666,25.333 21.334,26 18,26.667 13.333,28.667 40.666,-16 14,10 7.334,20.667 22,-1.333 16,40 1.333,25.333 8.667,20.667 2,20.667 3.333,20 13.333,21.333 13.334,20 -3.334,23.333 v 21.333 l -3.333,22.667 192.666,46 57.334,6.667 39.333,1.333 58.667,8.667 4,12.667 -22,36.667 -16,-2 c 0,0 -2.668,6 -5.334,6 -2.666,0 -10,-3.333 -10,-3.333 0,0 -7.333,3.333 -9.333,3.333 -2,0 -20.667,-2 -20.667,-2 l 9.334,40 -4.667,6 8.667,39.333 24.666,-2.667 50.667,-6.667 52,8 34.666,-2 48.667,-6 13.333,42.667 -30.666,29.333 -25.334,20.667 -24.666,20.666 -26.667,26 -28.667,34 -26.666,45.334 -12,35.332 -9.334,32.668 -8,42.666 -6.666,37.334 -4.667,31.332 -8,12 37.333,12 -25.333,44 -62.667,97.334 -4.666,57.334 16.666,9.332 c 0,0 -30,45.334 -28,45.334 2,0 25.334,7.334 25.334,7.334 l 13.333,-14.668 28.667,9.334 0.666,21.334 3.334,0.666 -0.667,20.666 8.667,0.668 2,-4.668 -4,-20.666 14,-2.666 -1.334,-52 21.334,-0.668 c 0,0 15.333,-16.666 17.333,-18 2,-1.332 30,-12.666 30,-12.666 l 23.333,-14.666 c 0,0 24.668,-26 27.334,-26 2.666,0 29.333,3.332 29.333,3.332 l 34,16 17.333,1.334 26,18 22.667,12.666 c 0,0 11.333,0.668 15.333,0.668 4,0 22.667,-6.668 22.667,-6.668 l 19.333,12 32,22.668 31.333,16.666 12.667,21.334 c 0,0 17.333,11.332 19.333,12 2,0.666 20.667,5.332 20.667,5.332 l 42.666,4.668 19.334,3.332 c 0,0 13.333,33.334 13.333,35.334 0,2 2,24 2,24 l 10.667,18 -0.667,14.666 v 10 l 44.667,2 4.666,-18 -0.666,-20.666 -4,-18 -16,-3.334 -8,-47.332 -14,-21.334 -8,-20 12,0.666 24,21.334 31.333,20 c 0,0 22,12.666 24,12.666 2,0 17.333,0 17.333,0 l 23.335,29.334 18,36 c 0,0 22.666,22.666 24.666,22.666 2,0 22,22.668 22,22.668 0,0 12.666,15.332 16,16 3.334,0.666 32.667,1.332 32.667,1.332 l 5.333,-4.666 6.667,1.334 2,6 c 0,0 49.333,10 52,10 2.667,0 9.333,-6 9.333,-6 0,0 42.667,14.666 44.667,14.666 2,0 27.333,14 27.333,14 l 4,8 6.667,-4 -11.333,31.334 20.666,3.332 -8,47.334 37.333,4.666 -10.666,19.334 -38,-0.666 8.666,-56.668 -36,6.668 -41.333,37.332 -4.667,55.334 -27.333,2 -4.667,2 h -28 l -25.333,-9.334 -27.333,-16.666 -22.667,-16 -6.667,-6 0.667,13.334 20.667,16.666 22.666,12.666 17.334,4.668 18.666,4 20.667,1.332 20,4.668 -1.333,35.332 17.333,8 -4,16 -25.333,4 -36.667,71.334 2,13.334 -4,12.666 -4.667,18.666 8,15.334 11.334,15.334 13.333,18 -2,8 22,11.332 8.667,13.334 3.333,17.334 -16.667,12.666 -6,26 -0.666,16.666 -26,27.334 -7.334,-2 -6,1.334 h -6 l -12,6.666 -11.333,11.334 -18,3.332 -8,-4.666 -13.333,0.666 -8,-8 -16,10.668 -12,12.666 -10.667,6.666 -2.667,9.334 -8.666,7.334 -12,8 -10.667,6 -9.333,10 -8.667,0.666 -21.333,34 -2,-11.334 -8,-1.332 -2.667,19.332 -14,16.668 -10.667,16 -12,12.666 -10.666,11.334 h -12 l -6.667,3.332 -5.333,14 10,10.668 10.666,-3.334 38,22 31.334,-5.334 -12,41.334 18,0.666 4.666,3.334 -0.666,11.334 -8,17.332 -8.667,21.334 -13.333,26 -14.667,18.666 4,12 c 0,0 -12,2 -10,2.668 2,0.666 4,6 4,6 l -10.667,-4 -10,4 -10,0.666 -22.666,-14.666 -15.334,-6.668 -22,8 -29.333,20 -20,5.334 -8,20 -3.333,6.666 -8,4.668 -8.667,18.666 -3.333,38.666 1.333,16.668 c 0,0 -15.333,2 -15.333,4 0,2 -4,13.332 -4,13.332 l -3.334,16 -6,13.334 -15.333,7.334 -0.667,13.332 -13.333,6 -0.667,19.334 -4,16 1.334,13.334 -8,9.332 -7.334,11.334 -11.333,21.334 -0.667,17.332 c 0,0 1.334,22.668 1.334,25.334 0,2.666 -8,12.666 -8,12.666 l -14.667,4 -16,-3.332 -12.667,-8.668 -8,-0.666 c 0,0 -19.332,-24.668 -22.666,-25.334 -3.334,-0.666 -25.334,-38.666 -25.334,-38.666 l -4,-36 -0.666,-64.666 c 0,0 1.333,-38 1.333,-40 0,-2 12.667,-26.668 12.667,-26.668 l 30.666,-37.332 c 0,0 17.333,-19.334 18,-22.668 0.667,-3.332 0,-20.666 0,-20.666 l -8,-25.334 -30.666,-6 4.666,-29.332 -8.666,-48.668 -61.334,18 -38.666,-54 -144,94 3.333,-24 -3.333,-12.666 -4,-7.334 -3.334,-3.332 6.667,-11.334 -6,-19.334 -14.667,-10 c 0,0 -5.333,-13.998 -7.333,-14.666 -2,-0.666 -12,-7.334 -12,-7.334 l -12,-15.332 -20.667,-4 -10,-17.334 0.667,-8.666 -2,-9.334 -7.333,-2.666 -4,-10 4,-12.668 0.666,-10 -4.666,-9.332 -8,-7.334 -52.666,27.334 -32.666,9.332 c 0,0 -28,10.668 -30.667,10.668 -2.667,0 -20,6 -20,6 0,0 -22,12.666 -24,12.666 -2,0 -31.333,10 -31.333,10 h -32 c 0,0 -31.334,-0.666 -34.667,-0.666 -3.333,0 -29.333,1.332 -29.333,1.332 l -28,1.334 c 0,0 -21.334,0 -23.334,0 -2,0 -51.333,1.334 -51.333,1.334 l -2,-20.668 v -24 l 2,-20 6.667,-30.666 4,-22 4.666,-11.334 c 0,0 -23.334,15.334 -26,15.334 -2.666,0 -28,18.666 -28,18.666 0,0 -40.666,-15.332 -44.666,-17.332 -4,-2 -35.333,-18 -35.333,-18 0,0 -14,-4.668 -16.667,-4.668 -2.667,0 -17.334,8.668 -20.667,9.334 -3.333,0.666 -40,12 -40,12 l -40.666,9.334 -42.667,10.666 -56.667,21.334 -44,14.666 -13.333,-62.666 -20.667,-47.334 c 0,0 -57.333,-149.332 -63.999,-150 -6.666,-0.666 -22.667,-9.334 -28,-9.334 -5.333,0 -33.333,7.334 -33.333,7.334 0,0 -84.001,48.666 -86.667,49.334 -2.666,0.666 -49.333,25.332 -49.333,25.332 0,0 -42.667,27.334 -48,26.668 -5.333,-0.668 -82,29.332 -82,29.332 l -1.333,30.668 76,230.666 -5.334,25.334 -35.333,92.666 c 0,0 -94,-4 -102,-2.666 -8,1.332 -116.667,-3.334 -116.667,-3.334 l -14.667,-118 -114.666,4 c 0,0 6.666,-56.668 4.666,-57.334 -2,-0.666 -69.333,-36 -69.333,-36 z"
         clip-path="url(#Schnittmaske_2_-8)"
         id="path4212"
         inkscape:connector-curvature="0" />
    </clipPath>
    <clipPath
       id="Schnittmaske_2_-8">
      <use
         height="3701.373"
         width="5048.2329"
         y="0"
         x="0"
         id="use18-2"
         xlink:href="#Schnittmaske" />
    </clipPath>
    <inkscape:perspective
       sodipodi:type="inkscape:persp3d"
       inkscape:vp_x="0 : 0.5 : 1"
       inkscape:vp_y="0 : 1000 : 0"
       inkscape:vp_z="1 : 0.5 : 1"
       inkscape:persp3d-origin="0.5 : 0.33333333 : 1"
       id="perspective4172-8" />
    <clipPath
       id="Schnittmaske_2_-0">
      <use
         height="3701.373"
         width="5048.2329"
         y="0"
         x="0"
         id="use18-9"
         xlink:href="#Schnittmaske" />
    </clipPath>
    <inkscape:perspective
       sodipodi:type="inkscape:persp3d"
       inkscape:vp_x="0 : 0.5 : 1"
       inkscape:vp_y="0 : 1000 : 0"
       inkscape:vp_z="1 : 0.5 : 1"
       inkscape:persp3d-origin="0.5 : 0.33333333 : 1"
       id="perspective4172" />
    <clipPath
       id="Schnittmaske_2_-1">
      <use
         height="3701.373"
         width="5048.2329"
         y="0"
         x="0"
         id="use18-7"
         xlink:href="#Schnittmaske" />
    </clipPath>
    <inkscape:perspective
       sodipodi:type="inkscape:persp3d"
       inkscape:vp_x="0 : 0.5 : 1"
       inkscape:vp_y="0 : 1000 : 0"
       inkscape:vp_z="1 : 0.5 : 1"
       inkscape:persp3d-origin="0.5 : 0.33333333 : 1"
       id="perspective3370" />
    <path
       d="m 1845.815,3094.159 -66,-57.5 v -44.5 l -115.5,78.5 -55,37 -34.5,32.5 -18,-26 -102,-135 7,-5.5 2.5,-7.5 -4.5,-6.5 -45.5,46 -48,50 -28.5,26.5 -29.5,17 -28.5,5.5 h -17 l -18,-3 -21.5,-11.5 -15.5,-4.5 h -22.5 l -39,19.5 -0.5,-7 c 0,0 -0.5,-14.5 -0.5,-16.5 0,-2 -5.5,-15.5 -5.5,-15.5 l -1,-18 c 0,0 -2,-26 -2,-27.5 0,-1.5 -7,-29 -7,-29 l -8,-25.5 -1,-18.5 -10.5,-21.5 -35,6 c 0,0 -33.5,1 -35,1 -1.5,0 -15,5.5 -15,5.5 l -58,-4.5 -27,14.5 -29.5,15 -43,25 -47.5,14 -26,6.5 -16.5,1 -25.5,18.5 -219,131.5 v 21 l -2,23 -6.5,33 7.5,-1 33,-7 21.5,-5 31,-9.5 3,23 -21.5,16.5 -30,3.5 -39.5,5.5 -28.5,-9 -21.5,-2.5 -29.5,-1.5 -23,-9 -3,-7.5 -22,15.5 -23.5,23.5 -22.5,26 -9.5,14.5 c 0,0 10,11 12.5,12 2.5,1 8,11 8,11 l -2.5,11.5 -14,1 -20.5,-12.5 c 0,0 -11,-9 -11,-10.5 0,-1.5 3.5,-24 3.5,-24 l 5.5,-5.5 20.5,-2 11.5,-12.5 c 0,0 18,-18 18.5,-19.5 0.5,-1.5 16.5,-17.5 16.5,-17.5 l -17.5,1 -2,-4 -4.5,-8 21.5,-8 -32.5,-12.5 -4.5,3 -6,9.5 -10,10 -14,6 -13.5,6 c 0,0 -12,-7 -13.5,-7.5 -1.5,-0.5 -14,-9.5 -14,-9.5 l -13,-19 -16,-19 -6.5,-6 -11.5,-5 -20,-6 -13.5,-13 -2,-10.5 -10.5,-12.5 -7,-5.5 1.5,-3 7,-7.5 -7,-5 h -13.5 l 2,-8 5,-8.5 7,-9 6,-13 -0.5,-8 -20,-7.5 -2.892,9.074 3,19.5 -4.5,10.5 -13.5,-1.5 h -20.999 v -15 l -3,-18 -6,-2.998 -22.499,10.498 3,10.5 13.5,12 v 8.998 l -14.999,6 -9,-8.998 -19.499,-4.5 c 0,0 -12,-3 -16.5,-7.5 -4.5,-4.5 1.5,-19.5 1.5,-19.5 l -6,-17.998 -3,-22.5 -12,-25.498 9,-3 26.999,-20.998 22.499,-18 16.5,-26.998 c 0,0 7.5,4.5 11.999,4.5 4.499,0 22.499,4.498 22.499,4.498 l 9,-16.498 25.499,-25.498 19.499,-18 -6,-29.998 3,-9 19.499,-23.998 26.999,-22.5 23.999,-10.5 v -13.498 l 6,-12 -19.5,-16.498 -20.999,-33 -8.999,-4.5 -13.5,-3 -11.999,-14.998 6,-9 -16.499,-16.5 -20.999,-14.998 3,-12 7.392,-22.096 2.5,-33 -2.5,-22.5 -14.5,-12 5,-25.5 -3.5,-21.5 -4,-14.5 22,-43 c 0,0 11,-28.5 12,-30 1,-1.5 9,-25.5 9,-27 0,-1.5 0,-14.5 0,-14.5 l -0.5,-20.5 58,-18.5 44,-62 48,-69 56.5,-82 42.5,-55.5 42,-52 c 0,0 13,-12.5 13,-14 0,-1.5 12.5,-17.5 12.5,-17.5 l 7.5,-2.5 -63,-32.5 -19,-8 -35,-21.5 -35.5,-18 -12.5,-1 -5.5,-15 -11.5,-9 -18.5,3.5 -45,14.5 c 0,0 -40,12 -42,12 -2,0 -30.5,4 -30.5,4 l -35.5,3 4,-34 0.5,-26 v -46.5 l 2,-42 3,-25 14,-38.5 5,-23 3,-39.5 4,-22 5.5,-44.501 13.5,-58.5 8,-39.5 13.5,10 c 0,0 11,14 12.5,14.5 1.5,0.5 20.5,7.5 20.5,7.5 l 23.5,4.5 c 0,0 18,1.5 19.5,1.5 1.5,0 7.5,-3 7.5,-3 l 6.5,-2 3,-8.5 v -7 l 6.5,-9 v -11 l -4.5,-33 -9,-22 10,-14 2,-37 12,-22 7,-30 10,-13 v -22 l 4,-8 -1,-44 c 0,0 -12,-34 -16,-40 -4,-6 -10,-20 -10,-20 l -5,-6 -40,21 -29,13 h -14 c 0,0 -24,12 -28,12 -4,0 -11,-14 -11,-14 l -7,-21 -12,-1 4,-30 -8,-4 1,-10 6,-5 16,8 30,-11 10,-17 39,-8 32,-21 29,-45 c 0,0 14,-26 18,-28 4,-2 32,-12 32,-12 l 26,-4 19,17 9,3 h 13 l 17,13 12,5 18,2 16,3 12,4 h 19 l 12,14 17,5 16,13 20,10 29,2 33,14 29,14 6,-19 39,-1 25,8 9,-34 v -18 l -14,-20 -22,-17 -27,-20 -38.333,-46 -22.667,-30.667 -2.667,-22.667 14.667,-12 18,-13.333 16,-38 15.333,-34 10.667,-25.333 9.333,-22 14,-16 10.667,-33.333 7.333,-26.667 0.667,-26.667 36.667,-4 1.333,6 28.667,0.667 24.666,-4 h 19.334 c 0,0 19.334,-4 22,-4 2.666,0 12.666,-6 15.333,-6 2.667,0 16,8.667 18,8.667 2,0 12.667,2 12.667,2 l 10.666,-4 29.334,0.667 26,-4 c 0,0 22,-4 27.333,-2.667 5.333,1.333 26.667,8 24.667,7.333 -2,-0.667 -1.334,-62 -1.334,-62 l -2.666,-29.333 -7.334,-20.667 -11.333,-22 -1.333,-19.333 c 0,0 35.999,8.667 38.666,8.667 2.667,0 20.667,-2 20.667,-2 l 16,-6 22.667,1.333 c 0,0 27.999,-8 30.666,-8 2.667,0 16,-4.667 16,-4.667 l 2.667,-127.333 h -24 l 4.667,-94 40,10 28.666,2.667 38.667,-1.333 26,-4 32,-3.333 19.333,22 -62,48.667 58.667,104 6,1.333 c 0,0 -5.333,34.667 -5.333,36.667 0,2 -7.334,12 -7.334,12 l 1.334,16.667 -2,20.667 18.666,38.667 5.334,20.667 2,10 -45.334,27.333 42,-6 24.667,-4.667 c 0,0 32.667,13.333 36.667,13.333 4,0 32.666,1.333 32.666,1.333 l 58,17.333 40,18.667 20,-8 29.334,-6.667 48,-4.667 4,11.333 24.666,-10.667 16,2.667 16,-10 16,-9.333 31.334,-11.333 9.333,-2.667 12,-16.667 8,-2 19.333,-11.333 14,-17.333 -8.666,-16 19.333,-35.333 2.667,5.333 9.333,-9.333 10.667,-6 -2.667,-5.333 -6.667,-2.667 13.334,-8.667 14.666,0.667 16,-8 6.667,-9.333 4,-21.333 -1.333,-23.333 14.666,-19.333 8,-34.667 2.667,-9.333 h 15.333 l 2,-6 4.667,-7.333 39.333,36 24.667,14 12,12 c 0,0 27.333,-14.667 29.333,-12 2,2.667 8,10 8,10 h 10 v 17.333 c 0,0 22.667,24 24.667,25.333 2,1.333 45.333,27.333 45.333,27.333 l 26.667,-22.667 24.667,2.667 12,-12 -6.667,-30 0.667,-40 41.333,-13.333 2,-41.333 19.333,-6.667 c 0,0 22,-4.667 24,-4.667 2,0 31.334,-1.333 31.334,-1.333 l 1.333,10 c 0,0 50.001,5.333 51.335,3.333 1.334,-2 17.334,-4.667 17.334,-7.333 0,-2.667 4,-16.667 4,-16.667 l 14.666,-8 10.667,-7.333 20,-3.333 8.667,-16 16.666,-8.667 -2.666,-22 -8.667,-5.333 -68.667,-4.667 c 0,0 -55.332,-46 -60.666,-46 -5.334,0 -29.334,-10.667 -29.334,-10.667 l 61.334,-72.667 43.333,14 24.667,-40 7.333,2 27.333,-43.333 10,6.667 19.334,-16.667 6,8 c 0,0 -29.334,58 -28.667,60 0.667,2 7.333,20.667 7.333,20.667 l 78.667,-44 -14.667,135.333 43.333,44 84,45.333 18.667,6 51.333,42.667 42.667,-20 11.333,21.333 13.334,0.667 -4.667,80.667 -18.667,88.667 -77.333,50.667 0.667,66 -9.334,6 -32,94 -8,69.333 16,-4.667 73.334,141.333 98.666,-14 24,4 35.334,8 47.333,14.667 59.333,16 -0.666,6.667 38.666,20 35.334,28 32.666,25.333 21.334,26 18,26.667 13.333,28.667 40.666,-16 14,10 7.334,20.667 22,-1.333 16,40 1.333,25.333 8.667,20.667 2,20.667 3.333,20 13.333,21.333 13.334,20 -3.334,23.333 v 21.333 l -3.333,22.667 192.666,46 57.334,6.667 39.333,1.333 58.667,8.667 4,12.667 -22,36.667 -16,-2 c 0,0 -2.668,6 -5.334,6 -2.666,0 -10,-3.333 -10,-3.333 0,0 -7.333,3.333 -9.333,3.333 -2,0 -20.667,-2 -20.667,-2 l 9.334,40 -4.667,6 8.667,39.333 24.666,-2.667 50.667,-6.667 52,8 34.666,-2 48.667,-6 13.333,42.667 -30.666,29.332 -25.334,20.668 -24.666,20.666 -26.667,26 -28.667,34 -26.666,45.334 -12,35.332 -9.334,32.668 -8,42.666 -6.666,37.334 -4.667,31.332 -8,12 37.333,12 -25.333,44 -62.667,97.334 -4.666,57.334 16.666,9.332 c 0,0 -30,45.334 -28,45.334 2,0 25.334,7.334 25.334,7.334 l 13.333,-14.668 28.667,9.334 0.666,21.334 3.334,0.666 -0.667,20.666 8.667,0.668 2,-4.668 -4,-20.666 14,-2.666 -1.334,-52 21.334,-0.668 c 0,0 15.333,-16.666 17.333,-18 2,-1.332 30,-12.666 30,-12.666 l 23.333,-14.666 c 0,0 24.668,-26 27.334,-26 2.666,0 29.333,3.332 29.333,3.332 l 34,16 17.333,1.334 26,18 22.667,12.666 c 0,0 11.333,0.668 15.333,0.668 4,0 22.667,-6.668 22.667,-6.668 l 19.333,12 32,22.668 31.333,16.666 12.667,21.334 c 0,0 17.333,11.332 19.333,12 2,0.666 20.667,5.332 20.667,5.332 l 42.666,4.668 19.334,3.332 c 0,0 13.333,33.334 13.333,35.334 0,2 2,24 2,24 l 10.667,18 -0.667,14.666 v 10 l 44.667,2 4.666,-18 -0.666,-20.666 -4,-18 -16,-3.334 -8,-47.332 -14,-21.334 -8,-20 12,0.666 24,21.334 31.333,20 c 0,0 22,12.666 24,12.666 2,0 17.333,0 17.333,0 l 23.335,29.334 18,36 c 0,0 22.666,22.666 24.666,22.666 2,0 22,22.668 22,22.668 0,0 12.666,15.332 16,16 3.334,0.666 32.667,1.332 32.667,1.332 l 5.333,-4.666 6.667,1.334 2,6 c 0,0 49.333,10 52,10 2.667,0 9.333,-6 9.333,-6 0,0 42.667,14.666 44.667,14.666 2,0 27.333,14 27.333,14 l 4,8 6.667,-4 -11.333,31.334 20.666,3.332 -8,47.334 37.333,4.666 -10.666,19.334 -38,-0.666 8.666,-56.668 -36,6.668 -41.333,37.332 -4.667,55.334 -27.333,2 -4.667,2 h -28 l -25.333,-9.334 -27.333,-16.666 -22.667,-16 -6.667,-6 0.667,13.334 20.667,16.666 22.666,12.666 17.334,4.668 18.666,4 20.667,1.332 20,4.668 -1.333,35.332 17.333,8 -4,16 -25.333,4 -36.667,71.334 2,13.334 -4,12.666 -4.667,18.666 8,15.334 11.334,15.334 13.333,18 -2,8 22,11.332 8.667,13.334 3.333,17.334 -16.667,12.666 -6,26 -0.666,16.666 -26,27.334 -7.334,-2 -6,1.334 h -6 l -12,6.666 -11.333,11.334 -18,3.332 -8,-4.666 -13.333,0.666 -8,-8 -16,10.668 -12,12.666 -10.667,6.666 -2.667,9.334 -8.666,7.334 -12,8 -10.667,6 -9.333,10 -8.667,0.666 -21.333,34 -2,-11.334 -8,-1.332 -2.667,19.332 -14,16.668 -10.667,16 -12,12.666 -10.666,11.334 h -12 l -6.667,3.332 -5.333,14 10,10.668 10.666,-3.334 38,22 31.334,-5.334 -12,41.334 18,0.666 4.666,3.334 -0.666,11.334 -8,17.332 -8.667,21.334 -13.333,26 -14.667,18.666 4,12 c 0,0 -12,2 -10,2.668 2,0.666 4,6 4,6 l -10.667,-4 -10,4 -10,0.666 -22.666,-14.666 -15.334,-6.668 -22,8 -29.333,20 -20,5.334 -8,20 -3.333,6.666 -8,4.668 -8.667,18.666 -3.333,38.666 1.333,16.668 c 0,0 -15.333,2 -15.333,4 0,2 -4,13.332 -4,13.332 l -3.334,16 -6,13.334 -15.333,7.334 -0.667,13.332 -13.333,6 -0.667,19.334 -4,16 1.334,13.334 -8,9.332 -7.334,11.334 -11.333,21.334 -0.667,17.332 c 0,0 1.334,22.668 1.334,25.334 0,2.666 -8,12.666 -8,12.666 l -14.667,4 -16,-3.332 -12.667,-8.668 -8,-0.666 c 0,0 -19.332,-24.668 -22.666,-25.334 -3.334,-0.666 -25.334,-38.666 -25.334,-38.666 l -4,-36 -0.666,-64.666 c 0,0 1.333,-38 1.333,-40 0,-2 12.667,-26.668 12.667,-26.668 l 30.666,-37.332 c 0,0 17.333,-19.334 18,-22.668 0.667,-3.332 0,-20.666 0,-20.666 l -8,-25.334 -30.666,-6 4.666,-29.332 -8.666,-48.668 -61.334,18 -38.666,-54 -144,94 3.333,-24 -3.333,-12.666 -4,-7.334 -3.334,-3.332 6.667,-11.334 -6,-19.334 -14.667,-10 c 0,0 -5.333,-13.998 -7.333,-14.666 -2,-0.666 -12,-7.334 -12,-7.334 l -12,-15.332 -20.667,-4 -10,-17.334 0.667,-8.666 -2,-9.334 -7.333,-2.666 -4,-10 4,-12.668 0.666,-10 -4.666,-9.332 -8,-7.334 -52.666,27.334 -32.666,9.332 c 0,0 -28,10.668 -30.667,10.668 -2.667,0 -20,6 -20,6 0,0 -22,12.666 -24,12.666 -2,0 -31.333,10 -31.333,10 h -32 c 0,0 -31.334,-0.666 -34.667,-0.666 -3.333,0 -29.333,1.332 -29.333,1.332 l -28,1.334 c 0,0 -21.334,0 -23.334,0 -2,0 -51.333,1.334 -51.333,1.334 l -2,-20.668 v -24 l 2,-20 6.667,-30.666 4,-22 4.666,-11.334 c 0,0 -23.334,15.334 -26,15.334 -2.666,0 -28,18.666 -28,18.666 0,0 -40.666,-15.332 -44.666,-17.332 -4,-2 -35.333,-18 -35.333,-18 0,0 -14,-4.668 -16.667,-4.668 -2.667,0 -17.334,8.668 -20.667,9.334 -3.333,0.666 -40,12 -40,12 l -40.666,9.334 -42.667,10.666 -56.667,21.334 -44,14.666 -13.333,-62.666 -20.667,-47.334 c 0,0 -57.333,-149.332 -63.999,-150 -6.666,-0.666 -22.667,-9.334 -28,-9.334 -5.333,0 -33.333,7.334 -33.333,7.334 0,0 -84.001,48.666 -86.667,49.334 -2.666,0.666 -49.333,25.332 -49.333,25.332 0,0 -42.667,27.334 -48,26.668 -5.333,-0.668 -82,29.332 -82,29.332 l -1.333,30.668 76,230.666 -5.334,25.334 -35.333,92.666 c 0,0 -94,-4 -102,-2.666 -8,1.332 -116.667,-3.334 -116.667,-3.334 l -14.667,-118 -114.666,4 c 0,0 6.666,-56.668 4.666,-57.334 -2,-0.666 -69.333,-36 -69.333,-36 z"
       id="Schnittmaske"
       inkscape:connector-curvature="0" />
    <inkscape:perspective
       id="perspective540"
       inkscape:persp3d-origin="2524.1165 : 1233.791 : 1"
       inkscape:vp_z="5048.2329 : 1850.6865 : 1"
       inkscape:vp_y="0 : 1000 : 0"
       inkscape:vp_x="0 : 1850.6865 : 1"
       sodipodi:type="inkscape:persp3d" />
    <linearGradient
       y2="287.96011"
       x2="130.17194"
       y1="299.20953"
       x1="387.30167"
       gradientUnits="userSpaceOnUse"
       id="linearGradient10130-0"
       xlink:href="#linearGradient9794-8-7-2-0"
       inkscape:collect="always" />
    <linearGradient
       id="linearGradient9794-8-7-2-0">
      <stop
         style="stop-color:#e7e7e7;stop-opacity:1;"
         offset="0"
         id="stop9796-9-5-1-6" />
      <stop
         id="stop9800-0-2-3-3"
         offset="1"
         style="stop-color:#f6f6f6;stop-opacity:1;" />
    </linearGradient>
    <linearGradient
       y2="287.96011"
       x2="130.17194"
       y1="299.20953"
       x1="387.30167"
       gradientUnits="userSpaceOnUse"
       id="linearGradient10196"
       xlink:href="#linearGradient9794-8-7-2-0"
       inkscape:collect="always" />
    <linearGradient
       inkscape:collect="always"
       xlink:href="#linearGradient9794-8-7-2-0"
       id="linearGradient3895"
       x1="20.450615"
       y1="1875.5428"
       x2="4628.9189"
       y2="1875.5428"
       gradientUnits="userSpaceOnUse" />
    <linearGradient
       inkscape:collect="always"
       xlink:href="#linearGradient9794-8-7-2-0-5"
       id="linearGradient3895-2"
       x1="20.450615"
       y1="1875.5428"
       x2="4628.9189"
       y2="1875.5428"
       gradientUnits="userSpaceOnUse" />
    <linearGradient
       id="linearGradient9794-8-7-2-0-5">
      <stop
         style="stop-color:#e7e7e7;stop-opacity:1;"
         offset="0"
         id="stop9796-9-5-1-6-2" />
      <stop
         id="stop9800-0-2-3-3-6"
         offset="1"
         style="stop-color:#f6f6f6;stop-opacity:1;" />
    </linearGradient>
    <linearGradient
       gradientTransform="translate(-20.450615,-20.462023)"
       y2="1875.5428"
       x2="4628.9189"
       y1="1875.5428"
       x1="20.450615"
       gradientUnits="userSpaceOnUse"
       id="linearGradient3914"
       xlink:href="#linearGradient9794-8-7-2-0-5"
       inkscape:collect="always" />
  </defs>
  <sodipodi:namedview
     id="base"
     pagecolor="#ffffff"
     bordercolor="#666666"
     borderopacity="1.0"
     inkscape:pageopacity="0.0"
     inkscape:pageshadow="2"
     inkscape:zoom="0.26076095"
     inkscape:cx="1610.4481"
     inkscape:cy="1749.7517"
     inkscape:document-units="px"
     inkscape:current-layer="layer5"
     showgrid="false"
     inkscape:window-width="1920"
     inkscape:window-height="1137"
     inkscape:window-x="-8"
     inkscape:window-y="-8"
     inkscape:window-maximized="1"
     inkscape:snap-global="true"
     inkscape:snap-nodes="true"
     inkscape:snap-text-baseline="true"
     units="mm"
     fit-margin-top="0"
     fit-margin-left="0"
     fit-margin-right="0"
     fit-margin-bottom="0" />
  <metadata
     id="metadata7">
    <rdf:RDF>
      <cc:Work
         rdf:about="">
        <dc:format>image/svg+xml</dc:format>
        <dc:type
           rdf:resource="http://purl.org/dc/dcmitype/StillImage" />
        <dc:title />
      </cc:Work>
    </rdf:RDF>
  </metadata>
  <g
     inkscape:groupmode="layer"
     id="layer5"
     inkscape:label="neue Bezirke"
     style="display:inline"
     transform="translate(-15.590515,-15.601998)">
    <path
       style="display:inline;fill:#744db9;fill-opacity:1;stroke:#ffffff;stroke-width:5;stroke-linecap:butt;stroke-linejoin:miter;stroke-miterlimit:4;stroke-dasharray:none;stroke-opacity:1"
       d="m 798.39453,1120.1458 -5.7238,25.2947 16.3031,36.6908 3.0877,38.0815 54.5491,50.4322 -1.0292,26.76 14.4092,15.4384 1.0292,20.5846 14.4092,12.3507 -5.1461,27.7892 33.3209,39.785 153.99877,105.3363 111.2284,3.4406 27.5307,80.5754 -3.9302,36.4037 15.4385,8.2339 11.9935,22.509 41.6303,14.7725 -6.0431,47.0027 v 0 0 0 l -43.6447,20.8156 -51.2806,0.9107 -46.3153,19.5554 -68.9583,10.2923 -22.1274,-13.2997 9.5492,41.6569 -60.49707,-14.9773 -45.286,3.0877 -71.632,2.4629 -16.8817,40.7647 16.8817,98.228 -12.0863,2.6862 -26.187,49.6878 -18.1295,1.3426 -20.1742,46.6966 6.7443,22.4644 -71.17537,42.9739 -23.50084,1.3426 -34.91637,23.5008 2.42853,54.8395 -17.49689,43.2277 27.78918,56.6075 -16.46766,60.7245 8.78381,73.3299 -15.10488,111.7974 -25.68343,34.7482 -22.15825,42.3021 -50.35966,1.0072 -69.99994,61.9424 -29.7122,45.3237 -37.26615,37.2662 -105.2517,20.6474 -11.58273,9.0648 -19.64027,6.0431 -11.58272,-1.0072 -26.18702,7.0504 -32.44573,-40.3089 -22.66084,-7.5539 -12.08531,-15.1059 6.04316,-9.0648 -37.76774,-31.7245 12.98474,-67.5787 -17.12229,-34.7482 -2.51798,-61.9423 41.69651,-103.267 1.1092,-32.7041 58.41722,-18.6331 234.67603,-322.8055 25.68343,-31.7266 -75.0359,-43.3093 -71.00712,-39.7841 -12.58992,-1.0072 -17.12229,-24.1726 -100.90304,29.3758 -71.83061,7.8903 13.16456,-62.4395 -6.6178,-87.1287 17.12228,-63.9568 39.28054,-228.6328 46.83449,32.2301 50.86326,3.0216 16.1151,-26.6906 -4.53237,-44.3165 -9.06474,-22.1583 10.07193,-14.1007 2.01439,-37.2661 12.08632,-22.1583 7.05035,-30.2158 10.07193,-13.0935 v -22.1582 l 3.02158,-52.3741 -26.18702,-60.4316 -74.53231,28.2014 h -14.1007 l -39.28054,-2.0144 -7.05036,-21.151 -12.08632,-1.0072 4.02878,-30.2158 -7.05036,-14.1007 22.15826,3.0216 30.2158,-11.0792 10.07193,-17.1222 39.28054,-8.0576 32.23018,-21.1511 40.45065,-66.0365 65.30465,-23.6037 28.20141,20.1439 h 13.09351 l 29.20861,18.1295 65.46756,9.0647 29.20861,19.1367 36.25896,23.1654 29.20861,2.0144 44.72281,17.3751 17.72317,10.8263 6.04316,-19.1366 z"
       id="path10353"
       inkscape:connector-curvature="0"
       sodipodi:nodetypes="ccccccccccccccccccccccccccccccccccccccccccccccccccccccccccccccccccccccccccccccccccccccccccccccccccccccccccccccccccccccc" />
    <path
       style="fill:#cd337a;fill-opacity:1;stroke:#ffffff;stroke-width:5;stroke-linecap:butt;stroke-linejoin:miter;stroke-miterlimit:4;stroke-dasharray:none;stroke-opacity:1"
       d="m 680.87022,2420.5482 42.64054,7.3847 9.30015,-6.0955 15.43843,7.7192 -0.51462,15.4385 10.29229,9.7776 27.78918,-23.6722 57.21417,8.248 35.93104,-11.3357 31.8863,5.9633 60.74429,-15.2264 158.15311,35.3703 43.6447,0.6718 13.4289,-12.7582 9.6598,8.6222 29.9561,-10.6365 75.2041,-16.1151 73.1897,-25.5153 116.1626,26.1871 6.0432,-3.357 v 0 l 89.3058,3.357 56.4018,24.8444 7.8511,-13.7867 6.9204,4.3856 4.7006,-6.714 51.0315,-14.7725 v 11.4145 l 67.8173,72.5179 6.715,2.0144 2.6862,22.1583 11.4145,1.3436 10.7437,-7.3868 8.0576,6.0432 4.6995,10.7437 12.0863,0.6718 126.2356,287.3855 -29.545,24.1726 -24.1726,63.1178 -136.9783,91.99 2.0144,30.8876 -167.3452,114.538 -34.7482,32.7338 -120.8632,-162.1581 5.036,-19.6403 -122.8776,123.3812 -29.7122,17.1223 -45.8273,5.5395 -18.1295,-3.0215 -37.2661,-16.1151 h -22.6619 l -39.2805,19.6402 -6.5468,-39.2805 1.2592,-49.3737 -19.3886,-51.3456 -1.0072,-18.6331 -10.5756,-21.6547 -68.006,6.4838 -17.6054,6.1062 -43.52767,-3.9229 -14.88954,-0.6095 -100.21573,54.892 -74.02871,20.6475 -16.61869,1.0072 -246.25876,151.079 -2.01439,44.3165 -6.54676,33.2374 93.66898,-22.6619 3.02158,23.1655 -21.65466,16.6186 -69.99993,9.0648 -50.35967,-11.5827 -52.87764,-10.5756 -48.84888,31.7266 -32.23018,40.7913 18.12948,34.7482 -14.10071,1.0072 -20.64746,-12.5899 -13.08103,-20.7449 11.06664,-19.5428 20.64746,-2.0144 46.83449,-49.8561 -24.17264,-11.0791 v 0 l -11.07912,-20.6475 -20.64747,22.6619 -27.69781,12.0863 -27.69782,-17.1223 -13.09351,-19.1367 -34.24457,-30.2158 -20.14387,-6.0431 -15.6115,-23.6691 -17.62588,-18.1295 8.56114,-10.5755 -20.64746,-5.036 20.14387,-38.7769 -20.64746,-15.6115 0.10877,28.7796 -4.53237,10.5755 -34.74716,-1.5108 -3.02158,-33.2374 -28.704001,7.554 16.618691,22.6618 -15.106894,15.1059 -25.453356,-10.4585 -22.561015,-9.4611 4.20247,-20.8697 -6.04316,-18.1275 -3.02158,-22.6618 -12.08632,-25.6814 26.409661,-18.1869 32.509133,-24.1132 16.618691,-27.1923 34.74615,9.0628 9.06474,-16.6167 45.32169,-43.8109 -6.04316,-30.2138 22.66084,-33.2353 27.19321,-22.6619 24.17163,-10.5755 -2.30143,-35.2266 26.18702,-7.0504 11.58272,1.0072 19.64027,-6.0431 11.58273,-9.0648 105.2517,-20.6474 37.26615,-37.2662 29.7122,-45.3237 69.99994,-61.9424 50.35966,-1.0072 22.15825,-42.3021 25.68343,-34.7482 z"
       id="path10380"
       inkscape:connector-curvature="0" />
    <path
       style="opacity:1;fill:#afb300;fill-opacity:1;stroke:#ffffff;stroke-width:5;stroke-linecap:butt;stroke-linejoin:miter;stroke-miterlimit:4;stroke-dasharray:none;stroke-opacity:1"
       d="m 1188.831,1522.1298 325.3265,-8.7264 70.1681,74.8677 4.0288,39.616 -104.0763,31.8948 12.4217,38.6087 24.5649,-6.8542 -0.057,14.9107 -23.8372,11.0792 28.8722,102.0629 v 0 0 l 10.6142,8.8883 8.1351,-12.2026 -5.4234,-8.8131 6.1013,-21.6936 25.0833,-10.1689 25.7612,13.5585 20.3378,24.4054 -2.0338,31.1846 6.1014,18.304 28.2015,1.1893 14.4361,24.1726 3.357,10.7438 -38.6088,9.7365 21.8229,8.0575 -12.9385,14.5708 -17.6261,6.7793 39.2939,12.8945 -6.7534,16.9343 2.7117,10.1688 14.9143,6.7793 13.3001,-5.681 20.1438,14.1007 -24.6624,42.1532 10.5617,8.2065 4.2987,11.4475 -11.0255,26.8445 8.0704,211.4919 -28.8732,8.7284 -80.5755,5.3724 5.3714,116.8334 -89.3058,-3.357 -6.0432,3.357 -116.1626,-26.1871 -73.1897,25.5153 -75.2041,16.1151 -29.9561,10.6365 -9.6598,-8.6222 -13.4289,12.7582 -43.6448,-0.6718 -158.153,-35.3703 -60.74429,15.2264 -31.8863,-5.9633 -35.93105,11.3357 -57.21416,-8.248 -27.78918,23.6722 -10.29229,-9.7776 0.51462,-15.4385 -15.43843,-7.7192 -9.30015,6.0955 -42.64054,-7.3847 -8.78382,-73.3299 16.46766,-60.7245 -27.78918,-56.6075 17.49689,-43.2277 -2.42853,-54.8395 34.91637,-23.5008 23.50084,-1.3426 71.17537,-42.9739 -6.7443,-22.4644 20.17418,-46.6966 18.12948,-1.3426 26.18702,-49.6878 12.08632,-2.6862 -16.8817,-98.228 16.8817,-40.7647 116.918,-5.5506 60.49697,14.9773 -9.5491,-41.6569 22.1274,13.2997 68.9583,-10.2923 46.3153,-19.5554 51.2805,-0.9107 43.6448,-20.8156 6.0431,-47.0027 -41.6303,-14.7725 -11.9935,-22.509 -15.4385,-8.2339 3.9301,-36.4037 z"
       id="path11187"
       inkscape:connector-curvature="0" />
    <path
       style="fill:#28177a;fill-opacity:1;stroke:#ffffff;stroke-width:5;stroke-linecap:butt;stroke-linejoin:miter;stroke-miterlimit:4;stroke-dasharray:none;stroke-opacity:1"
       d="m 798.39458,1120.1458 9.06474,-34.2435 v -18.1295 l -14.10072,-20.1439 -49.35247,-37.2661 -61.43879,-77.21853 -2.68618,-22.83005 32.90198,-25.51523 51.70225,-120.1914 14.10071,-16.11509 18.12949,-60.4316 0.67179,-26.85882 36.93075,-4.02878 1.34259,6.04316 28.87321,0.6718 24.84343,-4.02877 h 19.47308 l 29.99946,-11.49404 38.48968,12.16584 10.74273,-4.02878 29.54499,0.6718 40.1054,-8.80886 36.4319,8.62859 0.6802,-61.59492 -2.6852,-29.544 -18.8013,-42.97392 -1.3425,-19.47207 32.6948,7.85757 27.065,-1.14261 16.115,-6.04316 22.8301,1.34259 47.0017,-12.75812 2.6862,-128.24894 h -24.1727 l 4.7006,-94.67617 40.2877,10.07193 28.8722,2.68618 38.9452,-1.34258 24.8061,-7.65478 33.6111,0.26903 19.4721,22.15825 -62.446,49.01708 59.089,104.7481 6.0431,1.34259 -12.7581,49.01707 1.3436,16.7869 -2.0144,20.81566 26.1871,69.83274 -45.6601,27.52961 67.1465,-10.74373 35.58,11.62759 34.2517,3.14391 58.4173,17.45768 40.2877,18.80128 49.6889,-14.77251 48.3452,-4.70057 4.0288,11.41452 24.8434,-10.74373 16.1151,2.68619 32.2302,-19.47207 33.7259,-12.47711 62.6509,137.13256 10.5461,56.56522 -36.4318,108.33677 -55.3983,84.72763 -68.2782,9.2282 -24.8872,9.4049 117.8416,94.1726 4.0288,-3.0216 45.3237,42.3021 41.2949,29.7122 17.6259,11.0792 10.2945,10.1088 18.4105,0.9703 37.2662,28.705 3.5252,20.9829 -29.7123,0.6718 -34.2445,18.1294 -7.0504,63.4532 -40.2877,5.5396 -36.7626,27.1942 -4.0287,-34.7482 -38.6334,8.7546 -7.4572,-12.2027 -63.7251,6.7793 -86.0834,-24.4822 -36.259,27.6978 -32.2248,2.2078 -16.2702,12.2026 -96.9434,36.6081 -50.9643,109.6288 -52.0805,1.5511 -162.9553,3.9895 -111.9032,-1.9318 -153.99876,-105.3363 -33.3209,-39.785 5.1461,-27.7892 -14.4092,-12.3507 -1.0292,-20.5846 -14.4092,-15.4384 1.02919,-26.76 -54.54909,-50.4322 -3.08771,-38.0815 -16.30309,-36.6908 z"
       id="path11189"
       inkscape:connector-curvature="0" />
    <path
       style="fill:#28c57a;fill-opacity:1;stroke:#ffffff;stroke-width:5;stroke-linecap:butt;stroke-linejoin:miter;stroke-miterlimit:4;stroke-dasharray:none;stroke-opacity:1"
       d="m 1985.1886,1267.6463 39.0974,34.0825 26.4391,49.4887 1.9454,44.0069 7.3858,31.8948 -0.5182,25.4482 8.2403,-1.2756 2.0144,14.4361 10.0831,35.6502 23.1543,63.0548 15.4875,11.1782 14.7283,47.239 9.3381,9.0288 -12.3597,25.2158 0.496,19.5274 -5.532,7.6668 55.6985,15.3827 44.0137,25.4086 45.1336,20.3514 -3.8387,9.8644 24.1726,11.5827 -2.3688,29.0584 -11.1858,-6.4403 -6.0856,11.6265 9.5683,6.0432 -28.9049,63.6814 52.0703,42.0739 -14.1007,32.2302 -15.5981,13.8263 -19.9988,1.0169 -23.7274,-8.474 -3.6253,16.2926 -21.151,-6.5468 -4.0288,7.554 -17.1223,-6.0432 -10.0015,-21.7645 -16.1855,9.6782 -21.1511,-25.6834 -4.0287,5.5396 -14.6043,-8.0576 -16.2296,3.6088 -4.9215,8.4775 -131.0027,22.0292 -9.8299,-7.7961 -7.7284,-7.1827 -14.6432,57.3492 -10.5366,-2.9608 -10.072,20.6475 -3.1188,17.5655 -11.4855,15.6719 -36.7625,-3.5252 -158.6331,-52.8767 -20.1438,-14.1007 -13.3001,5.681 -14.9143,-6.7793 -2.7117,-10.1688 6.7534,-16.9343 -39.2939,-12.8945 17.6261,-6.7793 12.9386,-14.5708 -21.8229,-8.0575 38.6087,-9.7365 -3.357,-10.7438 -14.436,-24.1726 -28.2016,-1.1893 -6.1014,-18.304 2.0338,-31.1846 -20.3378,-24.4054 -25.7612,-13.5585 -25.0833,10.1689 -6.1013,21.6936 5.4234,8.8131 -8.1351,12.2026 -10.6142,-8.8883 -28.8721,-102.0629 23.8372,-11.0792 0.057,-14.9107 -24.5649,6.8542 -12.4217,-38.6087 104.0763,-31.8948 -4.0288,-39.616 -70.1681,-74.8677 -109.6159,1.677 50.9643,-109.6288 96.9434,-36.6081 16.2702,-12.2026 32.2248,-2.2078 36.259,-27.6978 86.0834,24.4822 63.7251,-6.7793 7.4572,12.2027 38.6334,-8.7546 4.0287,34.7482 36.7626,-27.1942 40.2877,-5.5396 7.0504,-63.4532 34.2445,-18.1294 z"
       id="path11191"
       inkscape:connector-curvature="0" />
    <path
       style="fill:#a5401b;fill-opacity:1;stroke:#ffffff;stroke-width:5;stroke-linecap:butt;stroke-linejoin:miter;stroke-miterlimit:4;stroke-dasharray:none;stroke-opacity:1"
       d="m 1703.1744,1993.4982 158.633,52.8767 36.7625,3.5252 -6.0431,15.1079 9.0647,42.3021 52.3741,18.1295 -5.036,10.0719 -1.0072,14.1007 -10.0719,21.1511 2.0144,32.2301 84.0821,-3.6902 1.5293,-13.432 55.4165,-2.1603 -0.6779,23.3885 37.6249,-1.0169 14.399,-17.1898 18.1295,2.0144 15.1079,-9.5683 -3.0216,56.4028 8.5611,25.1798 26.187,5.036 14.1909,-10.3525 37.176,145.3164 34.0063,-5.6636 2.2527,44.9441 7.5539,13.0936 v 0 l -13.2246,-1.1573 -2.8905,15.258 30.2158,15.6115 13.0935,11.0791 -36.7625,2.0144 -21.6547,52.374 -4.0288,-1.0072 -32.6205,166.8835 -1.1204,15.9221 -6.5468,13.5971 -4.317,25.1286 -9.5873,25.8858 -2.7144,32.0791 -22.6618,60.4316 20.1438,7.0503 -1.4787,16.4456 -32.2622,15.281 -4.0288,10.5755 24.1726,56.9065 49.9883,-14.2136 62.6683,36.5934 -1.3426,30.8886 76.5467,232.3253 -40.9595,118.8488 -220.2399,-6.0432 -14.7725,-118.8488 -115.4909,4.0288 3.7812,-55.5841 -68.9133,-38.4213 -69.4994,-48.6807 -66.4748,-57.9136 -4.3812,-43.0273 -2.0144,-30.8876 136.9782,-91.99 24.1727,-63.1178 29.545,-24.1726 -126.2356,-287.3855 -12.0863,-0.6718 -4.6996,-10.7437 -8.0575,-6.0432 -10.7437,7.3868 -11.4146,-1.3436 -2.6861,-22.1583 -6.715,-2.0144 -67.8173,-72.5179 v -11.4145 l -51.0315,14.7725 -4.7006,6.714 -6.9204,-4.3856 -7.8511,13.7867 -56.4018,-24.8444 -5.3715,-116.8334 80.5756,-5.3724 28.8731,-8.7284 -8.0704,-211.4919 11.0255,-26.8445 -4.2987,-11.4475 -10.5617,-8.2065 z"
       id="path11193"
       inkscape:connector-curvature="0" />
    <path
       style="fill:#a54045;fill-opacity:1;stroke:#ffffff;stroke-width:5;stroke-linecap:butt;stroke-linejoin:miter;stroke-miterlimit:4;stroke-dasharray:none;stroke-opacity:1"
       d="m 2224.9006,1725.0802 19.1366,-28.2014 11.4216,5.8434 4.6935,-8.865 84.6043,-19.6402 4.934,7.4895 25.2818,-22.5974 33.7409,45.3237 36.5649,-17.6418 30.9171,60.4475 -2.7832,14.8023 47.3464,10.4385 63.7101,-17.1833 19.1366,24.1727 20.2171,42.8647 -9.6415,1.9554 6.0431,46.8344 -29.2086,56.4029 -12.5899,71.0071 49.8561,31.223 -7.3354,15.4825 31.508,16.2441 10.5755,15.6115 11.1261,10.808 10.5286,-14.3332 9.5683,5.036 23.6691,16.1151 10.4024,14.7536 11.7558,2.8722 -4.5323,9.0648 -26.3982,-4.7465 -24.9687,24.3868 -15.7774,-20.5519 -10.4096,0.9116 -6.3682,12.99 -3.2002,-19.5368 -27.6978,-25.6834 -18.4767,-0.7989 -23.9683,-15.3398 -15.3398,0.9588 -20.2727,-18.0575 2.518,-10.0719 -63.9567,-19.6403 -24.2285,1.2711 -13.4223,26.3652 -6.1622,10.1335 -12.0863,-1.5108 -39.2805,56.4028 -142.0143,-62.446 40.2878,89.1366 -10.4401,18.5381 -19.1747,-6.7111 -83.6945,-14.345 5.0785,20.0974 -10.618,18.176 -15.1079,9.5683 -18.1295,-2.0144 -14.399,17.1898 -37.6249,1.0169 0.6779,-23.3885 -55.4165,2.1603 -1.5293,13.432 -84.0821,3.6902 -2.0144,-32.2301 10.0719,-21.1511 1.0072,-14.1007 5.036,-10.0719 -52.3741,-18.1295 -9.0647,-42.3021 6.0431,-15.1079 11.4855,-15.6719 3.1188,-17.5655 10.072,-20.6475 10.5366,2.9608 14.6432,-57.3492 17.5583,14.9788 131.0027,-22.0292 4.9215,-8.4775 16.2296,-3.6088 14.6043,8.0576 4.0287,-5.5396 21.1511,25.6834 16.1855,-9.6782 10.0015,21.7645 17.1223,6.0432 4.0288,-7.554 21.151,6.5468 3.6253,-16.2926 23.7274,8.474 19.9988,-1.0169 15.5981,-13.8263 14.1007,-32.2302 -52.0703,-42.0739 28.9049,-63.6814 -9.5683,-6.0432 6.0856,-11.6265 11.1858,6.4403 2.3688,-29.0584 -24.1726,-11.5827 3.8387,-9.8644 z"
       id="path11195"
       inkscape:connector-curvature="0" />
    <path
       style="fill:#dbc463;fill-opacity:1;stroke:#ffffff;stroke-width:5;stroke-linecap:butt;stroke-linejoin:miter;stroke-miterlimit:4;stroke-dasharray:none;stroke-opacity:1"
       d="m 1799.2093,628.30211 21.4865,-19.47308 27.5296,-13.4289 14.1007,-17.45769 -8.7283,-16.11509 9.3417,-24.79931 10.1303,-10.78785 12.0863,-4.02877 10.7438,-6.04316 -9.4012,-8.05755 13.4299,-8.72934 14.7715,0.67179 16.1151,-8.05754 10.7438,-30.88659 -1.3426,-23.50084 14.7715,-19.47207 10.7437,-44.31651 h 15.4433 l 6.715,-13.4289 39.6159,36.25895 24.8444,14.10071 12.0863,12.08632 24.9304,-11.56397 12.6712,9.54958 h 10.0719 v 17.45768 l 21.3221,27.56581 49.1815,25.47904 26.8588,-22.83005 24.8444,2.68618 12.0863,-12.08632 -6.7149,-30.2158 0.6718,-40.28773 41.6303,-13.42891 2.0144,-41.63032 19.4721,-6.71496 55.732,-6.04316 1.3426,10.07194 50.8305,8.22788 15.5923,-7.45719 6.7689,-21.58636 25.5152,-15.44329 c 0,0 20.1439,-3.35698 20.1439,-3.35698 l 8.7293,-16.11509 16.7859,-8.72934 -2.6851,-22.15826 -8.7294,-5.37136 -69.1609,-4.70057 -44.8227,-32.70059 -27.7949,-16.27023 -18.0298,-8.1038 61.7752,-73.18972 43.6447,14.10071 24.8444,-40.287734 7.3858,2.014387 27.5296,-43.644707 10.0719,6.714957 19.4731,-16.78689 6.0431,8.057546 -30.8826,61.638984 9.3952,19.608277 79.2329,-44.316504 -14.7726,136.303464 c 0,0 43.6448,44.31651 43.6448,44.31651 l 84.6042,45.65909 18.8013,6.04316 40.0958,33.72775 11.6064,9.24617 42.9739,-20.14387 11.4146,21.48646 13.4299,0.6718 -4.7006,81.24726 -18.8013,89.30481 -77.8893,51.03146 0.6718,66.47476 -9.4011,6.04316 -32.2302,94.67617 -8.0575,69.83173 16.1151,-4.70057 50.5107,94.45459 -104.7885,80.33845 -22.3716,29.82872 -15.8614,38.8974 -14.6043,6.0432 -3.4306,42.5119 6.4522,19.9341 -4.5323,2.518 0.5036,54.892 26.187,1.0072 0.5036,15.1079 29.7122,26.187 c 0,0 -21.6547,33.2374 -21.6547,33.2374 v 15.1079 l 12.995,6.9135 1.1057,26.8275 15.8424,2.3233 25.7612,14.2365 33.8963,49.4886 -9.0251,45.75 -56.9064,-12.5899 c 0,0 -21.182,35.6494 -22.5378,35.6494 -1.3559,0 -17.2464,-2.412 -17.2464,-2.412 v 0 l -4.1083,5.8016 7.6335,10.3135 -5.036,9.5683 -59.2044,1.4729 -21.0157,-5.7624 -8.4129,-1.25 4.0064,15.8254 24.195,74.822 -24.6762,37.2661 -5.9591,29.2596 -20.3378,51.5224 -1.4009,7.3474 -31.7266,15.1079 17.6259,27.6978 27.7043,13.233 27.795,0.6779 20.3378,14.5754 11.8637,13.5585 4.961,5.7969 -63.7101,17.1833 -47.3464,-10.4385 2.7832,-14.8023 -30.9171,-60.4475 -36.5649,17.6418 -33.7409,-45.3237 -25.2818,22.5974 -4.934,-7.4895 -84.6043,19.6402 -4.6935,8.865 -11.4216,-5.8434 -19.1366,28.2014 -44.0137,-25.4086 -55.6985,-15.3827 5.532,-7.6668 -0.496,-19.5274 12.3597,-25.2158 -9.3381,-9.0288 -14.7283,-47.239 -15.4875,-11.1782 -23.1543,-63.0548 -10.0831,-35.6502 -2.0144,-14.4361 -8.2403,1.2756 0.5182,-25.4482 -7.3858,-31.8948 c 0,0 -1.9454,-44.0069 -1.9454,-44.0069 l -26.4391,-49.4887 -39.0974,-34.0825 -3.5252,-20.9829 -37.2662,-28.705 -18.4105,-0.9703 -10.2945,-10.1088 -58.9208,-40.7914 -45.3237,-42.3021 v 0 l -4.0288,3.0216 -117.8416,-94.1726 24.8872,-9.4049 68.2782,-9.2282 55.3983,-84.72763 36.4318,-108.33677 -10.5461,-56.56522 z"
       id="path11197"
       inkscape:connector-curvature="0" />
    <path
       style="fill:#db4563;fill-opacity:1;stroke:#ffffff;stroke-width:5;stroke-linecap:butt;stroke-linejoin:miter;stroke-miterlimit:4;stroke-dasharray:none;stroke-opacity:1"
       d="m 2760.2238,896.66373 23.3508,47.89506 99.3757,-14.10071 167.1941,42.97392 -0.6708,6.71496 38.9441,20.14384 68.4892,53.7167 39.6169,53.0458 13.4289,28.8732 -13.446,1.4554 -138.3209,59.7598 -8.6863,15.4378 -24.4477,10.5461 -92.4297,123.0817 55.0602,181.2948 -33.5767,12.4846 c 0,0 -36.9268,25.118 -36.9268,25.118 l -35.5872,8.0575 11.1551,18.1167 16.2985,99.2288 2.0904,122.3665 108.1051,-2.6851 19.2334,12.1443 6.9536,30.8286 -11.2679,2.727 0.9587,26.8445 -5.1341,19.4455 34.2446,74.5323 18.8013,3.357 18.7201,32.5735 1.4237,22.4868 40.7605,87.7674 -13.2309,33.7676 1.3426,26.8578 12.8471,6.9653 8.6286,20.1333 11.4263,39.3761 c 0,0 -22.9311,-2.4649 -24.1295,-2.2252 -1.1985,0.2397 0.6287,8.9402 0.6287,8.9402 l -44.4908,-2.4687 -18.2159,-17.9763 -55.136,87.0869 -62.7881,-73.6646 -11.2406,11.7223 -42.4484,-16.2763 -18.4556,2.1572 -16.7778,9.3476 -33.316,-34.5144 -14.1413,-39.5477 -6.8032,-14.3318 -6.5467,5.0359 -12.0565,-5.3247 -27.3239,-1.4381 -10.4757,-0.7911 -7.2608,-26.7725 -18.4226,-17.544 4.5323,-9.0648 -11.7558,-2.8722 -10.4024,-14.7536 -23.6691,-16.1151 -9.5683,-5.036 -10.5286,14.3332 c 0,0 -11.1261,-10.808 -11.1261,-10.808 l -10.5755,-15.6115 -31.508,-16.2441 7.3354,-15.4825 -49.8561,-31.223 12.5899,-71.0071 29.2086,-56.4029 -6.0431,-46.8344 9.6415,-1.9554 -20.2171,-42.8647 -35.9613,-43.5281 -20.3378,-14.5754 -27.795,-0.6779 -27.7043,-13.233 -17.6259,-27.6978 31.7266,-15.1079 1.4009,-7.3474 20.3378,-51.5224 5.9591,-29.2596 24.6762,-37.2661 -24.195,-74.822 -4.0064,-15.8254 8.4129,1.25 21.0157,5.7624 59.2044,-1.4729 5.036,-9.5683 -7.6335,-10.3135 4.1083,-5.8016 18.219,2.7087 21.5652,-35.9461 56.9064,12.5899 9.0251,-45.75 -33.8963,-49.4886 -25.7612,-14.2365 c 0,0 -15.8424,-2.3233 -15.8424,-2.3233 l -1.1057,-26.8275 -12.995,-6.9135 v -15.1079 l 21.6547,-33.2374 -29.7122,-26.187 -0.5036,-15.1079 -26.187,-1.0072 -0.5036,-54.892 4.5323,-2.518 -6.4522,-19.9341 3.4306,-42.5119 14.6043,-6.0432 15.8614,-38.8974 22.3716,-29.82872 z"
       id="path11199"
       inkscape:connector-curvature="0" />
    <path
       style="fill:#81a0e2;fill-opacity:1;stroke:#ffffff;stroke-width:5;stroke-linecap:butt;stroke-linejoin:miter;stroke-miterlimit:4;stroke-dasharray:none;stroke-opacity:1"
       d="m 2386.0515,2118.8928 35.5871,25.0126 16.1151,-18.8012 61.1034,43.6457 13.4289,-17.4587 94.6762,98.7049 -0.3971,36.3638 4.3143,19.1747 53.2096,69.9874 10.5461,18.216 -11.5048,18.2159 -14.381,26.8445 -1.4994,13.98 h -119.5196 l 48.1553,98.671 302.0008,206.6069 65.4794,27.7667 32.2302,2.6861 4.0287,15.4433 -8.2619,33.1993 15.3397,16.2985 4.3368,13.62 12.0863,14.1007 0.6718,14.1007 6.7149,16.7869 -6.0431,12.7571 14.1007,8.7294 -5.3724,12.7581 4.1844,11.6489 -6.8696,33.3384 -14.7725,36.9308 -17.6659,16.9755 -0.4635,11.2259 -8.7294,14.7725 -22.9246,17.6239 -119.4079,25.2352 -101.3911,36.2589 c 0,0 -13.4289,-63.1168 -13.4289,-63.1168 0,0 -22.2331,-43.4377 -22.2331,-49.6695 0,-6.2317 -56.5652,-141.413 -56.5652,-141.413 l -32.5969,-18.6953 -46.0192,13.9016 -108.3367,58.4827 -58.4827,36.9112 -54.1684,14.8604 -36.5605,16.46 -62.6683,-36.5934 -49.9883,14.2136 -24.1726,-56.9065 4.0288,-10.5755 c 0,0 32.2622,-15.281 32.2622,-15.281 l 1.4787,-16.4456 -20.1438,-7.0503 22.6618,-60.4316 2.7144,-32.0791 9.5873,-25.8858 4.317,-25.1286 6.5468,-13.5971 1.1204,-15.9221 32.6205,-166.8835 4.0288,1.0072 21.6547,-52.374 36.7625,-2.0144 -13.0935,-11.0791 -30.2158,-15.6115 2.8905,-15.258 13.2246,1.1573 -7.5539,-13.0936 -2.2527,-44.9441 -34.0063,5.6636 -37.176,-145.3164 -14.1909,10.3525 -26.187,-5.036 -8.5611,-25.1798 3.0216,-56.4028 10.618,-18.176 -5.0785,-20.0974 83.6945,14.345 19.1747,6.7111 10.4401,-18.5381 -40.2878,-89.1366 z"
       id="path11201"
       inkscape:connector-curvature="0" />
    <path
       style="fill:#824132;fill-opacity:1;stroke:#ffffff;stroke-width:5;stroke-linecap:butt;stroke-linejoin:miter;stroke-miterlimit:4;stroke-dasharray:none;stroke-opacity:1"
       d="m 3209.9527,1135.9265 40.9586,-16.1151 14.1007,10.072 7.3867,20.8156 22.1583,-1.3426 16.1151,40.2878 1.3426,25.5152 8.7293,20.8157 5.3714,40.9595 26.8588,41.6303 -3.358,23.5009 v 21.4864 l -3.357,22.8301 131.3143,28.9691 c 0,0 62.7376,17.3618 62.7376,17.3618 l 57.7465,6.7149 61.6751,5.6441 c 0,0 37.0298,4.4278 37.0298,4.4278 l 4.0288,12.7582 -22.1583,36.9307 -16.1151,-2.0144 -15.4443,2.6862 v 0 l -30.2158,1.3426 9.4012,40.2877 -0.033,19.2057 4.062,26.4534 75.8749,-9.4011 c 0,0 52.3741,8.0575 52.3741,8.0575 0,0 56.8304,-8.1617 62.2538,-6.8058 5.4234,1.3558 21.6786,-1.2517 21.6786,-1.2517 l 13.4289,42.9739 -71.0376,57.9329 -65.9407,73.673 -26.8578,45.6601 -10.2463,48.7927 -14.9143,39.9976 -15.7989,91.8317 -8.0575,12.0863 37.6015,12.0864 -17.8127,35.8511 c 0,0 -70.8203,106.4995 -70.8203,106.4995 0,0 -5.7854,31.7974 -5.7854,35.1871 0,3.3896 1.0858,22.5593 1.0858,22.5593 l 16.7859,9.3992 -30.5673,42.0805 -21.6547,2.0144 -3.0216,-18.1295 -35.7553,3.0216 -116.0142,-88.7405 c 0,0 -33.0504,14.7118 -33.0504,14.7118 l -14.1007,-10.5756 -30.7194,19.6403 -4.1586,30.4576 -39.9976,24.4053 -17.2826,14.1299 -3.0216,-4.0288 -42.7429,10.9146 -47.0645,-2.1853 -11.4263,-39.3761 -8.6286,-20.1333 -12.8471,-6.9653 -1.3426,-26.8578 13.2309,-33.7676 -40.7605,-87.7674 -1.4237,-22.4868 -18.7201,-32.5735 -18.8013,-3.357 -34.2446,-74.5323 5.1341,-19.4455 -0.9587,-26.8445 11.2679,-2.727 -6.9536,-30.8286 -19.2334,-12.1443 -108.1051,2.6851 -2.0904,-122.3665 -16.2985,-99.2288 -11.1551,-18.1167 35.5872,-8.0575 36.9268,-25.118 33.5767,-12.4846 -55.0602,-181.2948 92.4297,-123.0817 24.4477,-10.5461 8.6863,-15.4378 138.3209,-59.7598 z"
       id="path11203"
       inkscape:connector-curvature="0" />
    <path
       style="fill:#9c9b59;fill-opacity:1;stroke:#ffffff;stroke-width:5;stroke-linecap:butt;stroke-linejoin:miter;stroke-miterlimit:4;stroke-dasharray:none;stroke-opacity:1"
       d="m 3573.5324,2254.3603 27.8821,10.9663 13.4289,-14.7735 28.8733,9.4011 0.6707,21.4875 2.6862,21.4855 6.715,-24.8435 14.1007,-2.6852 -1.3436,-52.374 21.4875,-0.6728 14.8425,-15.0872 56.3318,-30.5709 28.9954,-28.8705 28.0792,6.0394 34.2446,16.1151 17.4577,1.3436 26.187,18.1295 22.83,12.7571 38.2734,-6.0431 38.387,29.5776 31.8625,14.9144 13.0111,7.2112 12.7581,21.4875 23.0415,16.7224 47.4549,2.7117 32.2374,6.0801 18.607,37.9851 -3.1638,21.7757 10.7438,18.1295 -0.6718,24.8434 22.9206,-0.3456 22.0677,2.36 4.6995,-18.1295 -0.6707,-20.8146 -20.1439,-21.4875 -5.2747,-26.6692 -2.7829,-21.0033 -14.1007,-21.4874 -8.0575,-20.1439 12.0863,0.6708 24.1726,21.4875 56.4748,31.6633 16.714,1.2376 23.5028,29.5451 18.1295,36.2589 31.8179,29.2239 26.4391,30.5067 37.7618,3.3862 12.0863,-3.356 26.7576,12.1724 25.7612,11.5248 11.2697,-13.6252 45.6761,13.6252 26.8419,15.247 -0.6708,35.5881 20.8146,3.356 -5.6322,27.838 -2.4253,19.8365 37.6015,4.6995 -10.7427,19.4731 c 0,0 -22.7387,5.4795 -26.1283,5.1405 -3.3896,-0.3389 -12.145,-5.8113 -12.145,-5.8113 l 0.9592,-21.9837 5.0845,-28.4729 -9.83,-8.813 -23.7444,8.91 -41.6303,37.6005 -4.7006,55.732 -27.5296,2.0144 -58.4172,-7.3867 -50.3596,-32.901 -6.0432,7.3867 43.6447,29.543 36.259,8.7304 40.9595,6.0432 -1.3426,35.5861 17.4577,8.0576 -4.0288,16.115 -25.5152,4.0288 -36.9308,71.8471 1.2517,20.5413 -7.9666,24.446 18.4745,31.144 12.4131,25.9317 22.1582,11.4135 8.7294,13.4299 3.3569,17.4587 -16.7869,12.7571 c 0,0 -6.4822,31.2059 -6.4822,33.2397 0,2.0337 -2.7117,17.965 -2.7117,17.965 l -17.6261,14.9144 -25.554,3.7136 -23.5008,18.1295 -18.1295,3.356 -21.4865,-4.0288 -8.0575,-8.0575 -19.875,16.7159 -19.0702,13.4999 -2.6862,9.4011 -20.8146,15.4443 -20.1439,16.1151 -8.7293,0.6708 -21.4865,34.2446 -10.0719,-12.7571 -21.058,43.7132 -29.3017,32.8334 -18.8013,3.356 -5.3713,14.1007 10.0719,10.7448 10.7427,-3.358 31.6429,19.2678 20.6767,-0.6779 17.5132,-1.804 -7.0053,35.3613 17.748,10.2988 -0.6708,11.4155 -21.8227,64.0434 -23.1656,19.888 -2.0144,20.8167 h -20.8156 l -10.072,0.6708 -38.2733,-21.4875 -31.4144,15.0252 -40.4317,18.5486 -11.4146,26.8578 -16.7868,23.5019 1.1794,48.034 -3.1938,7.698 -19.1778,9.2501 -9.6954,37.7516 -20.4723,14.1098 1.0169,13.5585 -9.491,9.8299 -3.9546,38.3777 -26.8588,42.3021 c 0,0 1.3236,33.2118 1.3236,40.3301 0,7.1182 -8.7094,15.3999 -8.7094,15.3999 l -29.9324,7.9885 -21.7709,-16.7168 -31.1073,-33.7887 -20.3378,-37.6249 -1.6948,-128.1281 14.1958,-33.4564 48.5124,-60.0974 0.5037,-21.1488 -8.0576,-25.5163 c 0,0 -15.1567,-4.1793 -17.5294,-4.5183 -2.3727,-0.339 -13.3572,-1.5248 -13.3572,-1.5248 l 4.6996,-29.543 -8.7283,-49.0181 -61.7752,18.1295 -38.9442,-54.3885 -145.0358,94.6762 3.357,-24.1726 -7.3858,-20.1439 3.357,-14.7715 -6.0432,-19.4731 -14.7725,-10.0719 -8.5745,-16.4705 -10.8975,-5.6877 -12.0863,-15.4423 -20.8157,-4.0288 -10.0719,-17.4587 -1.3426,-18.1295 -7.3858,-2.6852 0.6708,-32.9029 -12.7571,-16.7859 -53.0448,27.5306 -61.4105,17.4588 -43.0484,19.6598 -35.2046,11.8975 -200.0961,3.3579 -2.0144,-20.8166 c 0,0 1.3149,-16.2817 0,-24.1727 -1.3149,-7.891 17.4577,-84.6042 17.4577,-84.6042 l -36.0597,19.7674 -18.3287,14.4772 -80.5745,-35.5862 -19.4902,-5.9293 8.7294,-14.7725 0.4635,-11.2259 17.6659,-16.9755 14.7725,-36.9308 6.8696,-33.3384 -4.1844,-11.6489 5.3724,-12.7581 -14.1007,-8.7294 6.0431,-12.7571 -6.7149,-16.7869 -0.6718,-14.1007 -12.0863,-14.1007 -4.3368,-13.62 -15.3397,-16.2985 8.2619,-33.1993 -4.0287,-15.4433 -32.2302,-2.6861 -65.4794,-27.7667 -302.0008,-206.6069 -48.1553,-98.671 h 119.5196 l 1.4994,-13.98 14.381,-26.8445 11.5048,-18.2159 -10.5461,-18.216 -53.2096,-69.9874 -4.3143,-19.1747 0.3971,-36.3638 -94.6762,-98.7049 -13.4289,17.4587 -61.1034,-43.6457 -16.1151,18.8012 -35.5871,-25.0126 39.2805,-56.4028 12.0863,1.5108 19.5845,-36.4987 24.2285,-1.2711 63.9567,19.6403 -2.518,10.0719 20.2727,18.0575 15.3398,-0.9588 23.9683,15.3398 18.4767,0.7989 27.6978,25.6834 3.2002,19.5368 6.3682,-12.99 10.4096,-0.9116 15.7774,20.5519 24.9687,-24.3868 27.9089,4.7465 16.9119,17.544 7.2608,26.7725 37.7996,2.2292 12.0565,5.3247 6.5467,-5.0359 6.8032,14.3318 14.1413,39.5477 33.316,34.5144 16.7778,-9.3476 18.4556,-2.1572 42.4484,16.2763 11.2406,-11.7223 62.7881,73.6646 55.136,-87.0869 18.2159,17.9763 44.4908,2.4687 -0.9559,-9.6141 71.5215,5.0844 42.7429,-10.9146 3.0216,4.0288 17.2826,-14.1299 39.9976,-24.4053 4.1583,-30.4576 30.7197,-19.6403 14.1004,10.5756 33.0507,-14.7118 116.0142,88.7405 35.7553,-3.0216 3.0213,18.1295 z"
       id="path3811"
       inkscape:connector-curvature="0" />
  </g>
</svg>
